# xmcd CD database file
#
# Track frame offsets:
#	150
#	34472
#	86607
#	123817
#	152845
#	183187
#	204665
#	224675
#
# Disc length: 3378 seconds
#
# Revision: 1
# Processed by: cddbd v1.4PL0 Copyright (c) Steve Scherf et al.
# Submitted via: NeoAudio 9.9.9
#
DISCID=6f0d3008
DTITLE=Richard Danielpour - celestial night
DYEAR=1999
DGENRE=New Age
TTITLE0=celestial night 1
TTITLE1=celestial night 2
TTITLE2=toward the splendid city
TTITLE3=urban dances - movement 1
TTITLE4=urban dances - movement 2
TTITLE5=urban dances - movement 3
TTITLE6=urban dances - movement 4
TTITLE7=urban dances - movement 5
EXTD=YEAR: 1999
EXTT0=
EXTT1=
EXTT2=
EXTT3=
EXTT4=
EXTT5=
EXTT6=
EXTT7=
PLAYORDER=
